<?xml version="1.0" encoding="UTF-8"?>
<svg width="115px" height="133px" viewBox="0 0 115 133" version="1.1" xmlns="http://www.w3.org/2000/svg" xmlns:xlink="http://www.w3.org/1999/xlink">
    <!-- Generator: Sketch 45.2 (43514) - http://www.bohemiancoding.com/sketch -->
    <title>frag_den_staat_logo</title>
    <desc>Created with Sketch.</desc>
    <defs>
        <linearGradient x1="0%" y1="0%" x2="0%" y2="0%" id="linearGradient-1"></linearGradient>
    </defs>
    <g id="Page-1" stroke="none" stroke-width="1" fill="none" fill-rule="evenodd">
        <g id="Partypolizei_1" transform="translate(-991.000000, -3951.000000)">
            <g id="frag_den_staat_logo" transform="translate(991.000000, 3951.000000)">
                <polyline id="Fill-1" fill="#BFBFBF" points="14.0012385 41.7273438 14.0012385 45.293158 26.3844923 52.652188 26.3844923 41.7273438 14.0012385 41.7273438"></polyline>
                <polyline id="Fill-2" fill="#BFBFBF" points="57.2255488 58.5663174 36.9386832 46.3629022 36.9386832 58.9240246 57.6477051 71.2310088 77.887852 58.9817193 77.887852 46.3130878 57.2255488 58.5663174"></polyline>
                <polyline id="Fill-3" fill="#BFBFBF" points="88.4417615 41.7273438 88.4417615 52.5944933 100.825015 45.1000918 100.825015 41.7273438 88.4417615 41.7273438"></polyline>
                <polyline id="Fill-4" fill="#FFFFFF" points="9.25085347 115.276554 3.69302401 115.276554 3.46674819 113.859516 4.51425889 113.649563 4.51425889 105.70655 3.49939495 105.593975 3.49939495 104.159206 10.8460417 104.159206 11.1522458 107.462158 9.92742942 107.462158 9.23509296 105.852335 6.62475935 105.852335 6.62475935 108.719621 9.07382922 108.719621 9.07382922 110.411061 6.62475935 110.411061 6.62475935 113.585114 9.36370994 114.00333 9.25085347 115.276554"></polyline>
                <path d="M16.6785542,114.246211 L16.6943148,115.276554 L12.0542533,115.276554 L11.8130613,114.246211 L12.7792365,113.987851 L12.7792365,108.816717 L11.9577202,108.880885 L11.7806959,107.784685 C11.9197261,107.763859 12.1001276,107.730931 12.3202118,107.687589 C12.5400145,107.645937 12.763476,107.602314 12.9889075,107.559254 C13.5903396,107.44105 13.9336935,107.376882 14.0200948,107.366469 L14.5677723,108.204309 C14.7827907,107.935536 15.0403061,107.728398 15.3411628,107.582613 C15.6414567,107.438517 15.9797447,107.366469 16.3560268,107.366469 C16.731746,107.366469 17.1105609,107.476511 17.4921903,107.69547 C17.8729754,107.915835 18.1392153,108.273824 18.289503,108.768028 L16.3402663,109.782892 L15.8564751,108.976574 C15.5885465,108.976574 15.351576,109.100969 15.1478152,109.347508 C14.8686291,109.68073 14.7290361,110.120899 14.7290361,110.669139 L14.7290361,113.681084 C14.7290361,113.692905 14.8120602,113.72133 14.9786712,113.770019 C15.1452823,113.818707 15.3411628,113.874995 15.5668758,113.939163 C16.1035773,114.100426 16.4742306,114.20287 16.6785542,114.246211" id="Fill-5" fill="#FFFFFF"></path>
                <path d="M22.6554443,111.989363 C21.3554841,112.053812 20.7059261,112.408986 20.7059261,113.052916 C20.7059261,113.236694 20.7647466,113.405557 20.8829504,113.560348 C21.001717,113.716545 21.1975976,113.795067 21.4708735,113.795067 C21.7449937,113.795067 21.9895629,113.713731 22.2045813,113.552467 C22.4190367,113.391204 22.5690429,113.219527 22.6554443,113.037155 L22.6554443,111.989363 Z M22.8487919,114.567331 C22.3331982,115.083769 21.7317661,115.340722 21.0442141,115.340722 C20.3138836,115.340722 19.7335592,115.137805 19.3040855,114.728595 C18.9069771,114.3419 18.7082821,113.872462 18.7082821,113.319156 C18.7082821,112.765849 18.8315518,112.327932 19.078654,112.006812 C19.3260376,111.684003 19.6373076,111.420578 20.0127453,111.215972 C20.7222495,110.851511 21.6025863,110.658726 22.6554443,110.636492 L22.6554443,109.363269 C22.6554443,109.245346 22.5724202,109.135304 22.4058091,109.032861 C22.2391981,108.932106 22.0433175,108.880885 21.8176046,108.880885 C21.45258,108.880885 21.2271485,108.896645 21.1413101,108.929292 L20.7222495,110.120899 L18.7240426,109.250694 C18.9390609,108.724968 19.3260376,108.284237 19.8844098,107.930189 C20.4751473,107.553907 21.1247052,107.366469 21.8333651,107.366469 C23.0685946,107.366469 23.9123445,107.822679 24.3632075,108.735382 C24.5247527,109.057909 24.6052439,109.465431 24.6052439,109.959917 L24.6052439,113.585114 C24.6052439,113.82124 24.7014955,113.939163 24.8948431,113.939163 L25.1368795,113.907923 L25.4267602,114.80993 C25.0181128,115.163697 24.5889205,115.340722 24.137776,115.340722 C23.5360625,115.340722 23.1065887,115.083769 22.8487919,114.567331 L22.8487919,114.567331 Z" id="Fill-6" fill="#FFFFFF"></path>
                <path d="M29.3581618,108.880885 C28.7668615,108.880885 28.3911423,109.181179 28.2298785,109.782892 C28.176124,109.954851 28.1493874,110.185348 28.1493874,110.474947 C28.1493874,110.765109 28.2464834,111.05893 28.439831,111.353595 C28.6331786,111.648542 28.9410713,111.79686 29.3660421,111.79686 C29.7901685,111.79686 30.0989056,111.648542 30.2925346,111.353595 C30.4858822,111.05893 30.5821339,110.765109 30.5821339,110.474947 C30.5821339,110.185348 30.5587746,109.954851 30.5100859,109.782892 C30.4613972,109.611215 30.3887863,109.455017 30.2925346,109.31458 C30.0775163,109.024981 29.7659649,108.880885 29.3581618,108.880885 Z M28.3590584,115.824794 C27.9402793,116.09216 27.7303268,116.40934 27.7303268,116.775209 C27.7303268,117.193425 28.0365309,117.477959 28.6489391,117.628809 C28.8847838,117.693259 29.1459579,117.725905 29.4302099,117.725905 C29.7150247,117.725905 29.9618455,117.703672 30.1717979,117.661456 C30.380906,117.618396 30.5717207,117.559294 30.7433976,117.483588 C31.1191168,117.32345 31.3073986,117.113497 31.3073986,116.855137 C31.3073986,116.694155 31.2133984,116.570604 31.0253981,116.48561 C30.8371163,116.398927 30.6012716,116.324346 30.3167382,116.259897 C30.0322048,116.194603 29.7150247,116.132969 29.3660421,116.073867 C29.016778,116.014765 28.681023,115.932304 28.3590584,115.824794 Z M27.424967,112.778795 C26.5758698,112.242657 26.1517434,111.453506 26.1517434,110.411061 C26.1517434,109.487664 26.4900314,108.735382 27.1666073,108.15562 C27.7790155,107.628769 28.4961185,107.366469 29.3176348,107.366469 C30.139714,107.366469 30.8458409,107.597248 31.436297,108.058524 L33.1927489,107.172559 L33.5631208,107.220966 L33.740145,108.816717 L32.2420528,108.993741 C32.4677657,109.422371 32.5803408,109.887587 32.5803408,110.38742 C32.5803408,110.88669 32.4860592,111.318134 32.2986217,111.684003 C32.11034,112.048465 31.8657707,112.355513 31.5654768,112.601771 C30.9741764,113.075431 30.2384986,113.311275 29.3581618,113.311275 L29.1327303,113.311275 C29.0677182,113.311275 29.0035505,113.305928 28.9393827,113.295515 L28.6489391,113.729492 L28.681023,113.955204 L30.3246185,114.293211 C32.0107111,114.648667 32.854461,115.410237 32.854461,116.581299 C32.854461,117.516234 32.4832448,118.273864 31.7425011,118.853626 C31.054949,119.389764 30.1684206,119.658537 29.0840416,119.658537 C28.1493874,119.658537 27.3920388,119.427758 26.8125589,118.966201 C26.2541867,118.515338 25.9747192,117.946271 25.9747192,117.257875 C25.9747192,116.36628 26.3878695,115.673944 27.2150146,115.179739 C26.9574992,114.900553 26.8283194,114.525397 26.8283194,114.052019 C26.8283194,113.58033 27.0270143,113.155359 27.424967,112.778795 L27.424967,112.778795 Z" id="Fill-7" fill="#FFFFFF"></path>
                <path d="M37.3977079,113.585114 L37.7036306,113.601156 C38.8426085,113.601156 39.7046518,113.26512 40.290042,112.594172 C40.8754322,111.922662 41.1678458,110.943259 41.1678458,109.65315 C41.1678458,108.364165 40.8458812,107.408403 40.2013892,106.785582 C39.5571785,106.162761 38.6222429,105.852335 37.3977079,105.852335 L37.3977079,113.585114 Z M34.2396968,113.859516 L35.2872075,113.649563 L35.2872075,105.70655 L34.2723435,105.577933 L34.2723435,104.159206 L37.1399111,104.159206 C40.1583292,104.159206 42.0968713,105.180825 42.9563817,107.220966 C43.2355678,107.897542 43.3751608,108.686974 43.3751608,109.588982 C43.3751608,111.41523 42.9105074,112.819322 41.9814819,113.802947 C41.0524564,114.785164 39.6697536,115.276554 37.8328104,115.276554 L34.4656911,115.276554 L34.2396968,113.859516 L34.2396968,113.859516 Z" id="Fill-8" fill="#FFFFFF"></path>
                <path d="M46.4039921,110.733307 C46.4577467,110.74372 46.5382379,110.749349 46.6460284,110.749349 L46.9356277,110.749349 C47.7197128,110.749349 48.2626059,110.556283 48.5634627,110.169588 C48.670409,110.02915 48.7238822,109.844527 48.7238822,109.613748 C48.7238822,109.382969 48.6546485,109.205945 48.5150555,109.08155 C48.375181,108.95828 48.2029412,108.896645 47.9988989,108.896645 C47.7951381,108.896645 47.6017905,108.945053 47.4194189,109.042149 C47.2364845,109.137556 47.0752208,109.272927 46.9356277,109.444604 C46.6243578,109.78824 46.4473335,110.218276 46.4039921,110.733307 Z M46.3882316,112.08674 C46.5382379,113.236694 47.1880772,113.810827 48.3380312,113.810827 C48.8316727,113.810827 49.2287812,113.716545 49.529638,113.528827 C49.8307762,113.341389 50.0778784,113.155359 50.271226,112.972706 L50.6415979,114.374546 C50.3407411,114.771936 49.7716743,115.061536 48.9338346,115.243907 C48.6546485,115.309482 48.3163605,115.340722 47.9189707,115.340722 C47.5210179,115.340722 47.1047717,115.260793 46.6702321,115.09953 C46.2348481,114.938547 45.8453385,114.697074 45.5019847,114.374546 C44.7395702,113.654629 44.3579409,112.672693 44.3579409,111.425643 C44.3579409,110.116114 44.7446361,109.084083 45.518308,108.332926 C46.1628001,107.687589 46.9736218,107.366469 47.9510545,107.366469 C48.6920797,107.366469 49.3208113,107.543493 49.8358421,107.897542 C50.4161664,108.306471 50.7057656,108.863999 50.7057656,109.57294 C50.7057656,110.421474 50.3570645,111.066529 49.6588178,111.506979 C49.0354336,111.904087 48.2192646,112.102501 47.2097479,112.102501 L46.7749269,112.102501 C46.6353338,112.102501 46.506154,112.097154 46.3882316,112.08674 L46.3882316,112.08674 Z" id="Fill-9" fill="#FFFFFF"></path>
                <path d="M51.6080545,107.768925 L53.9923938,107.349583 L54.5561133,107.945949 C54.7598741,107.79538 55.0339943,107.661416 55.3781924,107.543493 C55.7218277,107.42529 56.0651816,107.366469 56.4093798,107.366469 C56.7530151,107.366469 57.0746982,107.408403 57.3758364,107.494805 C57.6766932,107.581487 57.9395559,107.709823 58.1649874,107.8815 C58.6594733,108.258063 58.9065755,108.794483 58.9065755,109.493293 L58.9065755,114.100426 L59.7931039,114.246211 L59.776499,115.276554 L56.1513015,115.276554 L56.1513015,114.246211 L56.9567759,114.06778 L56.9567759,109.944156 C56.9567759,109.277993 56.6238352,108.945053 55.9576724,108.945053 C55.5172226,108.945053 55.1094195,109.089149 54.7337004,109.380437 C54.647299,109.444604 54.58876,109.498359 54.5561133,109.540293 L54.5561133,114.06778 L55.4744441,114.26169 L55.458965,115.276554 L51.8818933,115.276554 L51.7043062,114.246211 L52.607158,114.03654 L52.607158,108.863999 L51.7847973,108.863999 L51.6080545,107.768925" id="Fill-10" fill="#FFFFFF"></path>
                <path d="M65.2301966,113.342796 C65.4080651,113.236694 65.5470953,113.09879 65.6492572,112.93246 C65.751419,112.765849 65.8026406,112.570532 65.8026406,112.3451 C65.8026406,112.119387 65.7621136,111.927728 65.681341,111.772093 C65.6014128,111.617302 65.4747659,111.474332 65.3030889,111.345715 C65.0984838,111.184733 64.6881478,110.95902 64.0706737,110.669139 C63.4523554,110.378414 62.9665941,110.136941 62.6125456,109.944156 C62.2576528,109.749964 61.9463828,109.52988 61.6776099,109.283341 C61.1189563,108.735382 60.8397702,108.025877 60.8397702,107.156517 C60.8397702,106.254509 61.2050762,105.512358 61.9359696,104.932878 C62.633372,104.39674 63.5249663,104.127967 64.6101896,104.127967 C65.6197062,104.127967 66.6404803,104.272063 67.6716677,104.561944 L67.9128597,107.62314 L66.5599892,107.62314 L65.7705568,105.916221 C65.3517776,105.852335 64.9214596,105.819125 64.4815726,105.819125 C64.0408414,105.819125 63.6890444,105.937329 63.4261817,106.173174 C63.1624746,106.410707 63.0313247,106.66766 63.0313247,106.946846 C63.0313247,107.226032 63.1008398,107.44893 63.2407143,107.615541 C63.3803073,107.782152 63.5573316,107.930189 63.7723499,108.058524 C64.0298653,108.220069 64.4514588,108.437621 65.036849,108.711741 C65.6222392,108.98558 66.0922399,109.232119 66.4471327,109.452485 C66.8011812,109.67285 67.0913434,109.911228 67.3170563,110.169588 C67.7786139,110.674487 68.0099556,111.261847 68.0099556,111.933357 C68.0099556,112.604586 67.891189,113.14973 67.6553443,113.568228 C67.4186553,113.987851 67.1124512,114.331205 66.736732,114.600259 C66.0280722,115.094464 65.1150886,115.340722 63.9977814,115.340722 C63.009654,115.340722 61.9137361,115.09953 60.7114347,114.615739 L61.0333993,111.506979 L62.3868327,111.619835 L62.5154496,113.40809 C62.6550427,113.439611 62.8458574,113.4883 63.0878937,113.552467 C63.3290857,113.616635 63.5894155,113.649563 63.8694459,113.649563 C64.1477876,113.649563 64.4010815,113.624797 64.626513,113.577515 C64.8519445,113.528827 65.0531724,113.450305 65.2301966,113.342796" id="Fill-11" fill="#FFFFFF"></path>
                <path d="M70.1038513,112.634699 L70.136498,108.832196 L68.9119631,108.832196 L68.6702082,107.526607 L68.7827832,107.366469 L70.1522585,107.366469 C70.1626717,106.71072 70.1688634,106.136305 70.1688634,105.642101 C70.1688634,105.148178 70.1739292,104.820303 70.1843424,104.658758 L71.9087105,104.289231 L72.0536509,104.546183 L72.0536509,107.366469 L73.6806416,107.366469 C73.7346776,107.366469 73.7611327,107.39799 73.7611327,107.462158 L73.7611327,108.832196 L72.0536509,108.832196 L72.0536509,113.037155 C72.0536509,113.370096 72.096148,113.577515 72.1828307,113.657444 C72.2686692,113.737372 72.3919389,113.77818 72.5529212,113.77818 C72.8748858,113.77818 73.2297786,113.62339 73.6164738,113.311275 C73.626887,113.354617 73.653905,113.434545 73.6972464,113.552467 C73.7397435,113.67039 73.7830848,113.795067 73.8255819,113.923402 C73.9330911,114.277451 73.9972588,114.508229 74.0189295,114.615739 C73.8689233,114.777002 73.6192882,114.938547 73.2703056,115.09953 C72.9207601,115.260793 72.5774062,115.340722 72.2391182,115.340722 C71.9008303,115.340722 71.6103867,115.305542 71.3689132,115.236027 C71.1271583,115.166512 70.914673,115.046057 70.7325828,114.874098 C70.3135223,114.497816 70.1038513,113.890755 70.1038513,113.052916 L70.1038513,112.634699" id="Fill-12" fill="#FFFFFF"></path>
                <path d="M78.6108652,111.989363 C77.3106236,112.053812 76.6610656,112.408986 76.6610656,113.052916 C76.6610656,113.236694 76.7198861,113.405557 76.8380898,113.560348 C76.9565751,113.716545 77.1527371,113.795067 77.426013,113.795067 C77.7001332,113.795067 77.9447024,113.713731 78.1594393,113.552467 C78.3738948,113.391204 78.5241824,113.219527 78.6108652,113.037155 L78.6108652,111.989363 Z M78.8039314,114.567331 C78.2880563,115.083769 77.687187,115.340722 76.9990721,115.340722 C76.269023,115.340722 75.6886987,115.137805 75.2595064,114.728595 C74.8621166,114.3419 74.6634216,113.872462 74.6634216,113.319156 C74.6634216,112.765849 74.7866913,112.327932 75.0337935,112.006812 C75.2811771,111.684003 75.5924471,111.420578 75.9678848,111.215972 C76.677389,110.851511 77.5580072,110.658726 78.6108652,110.636492 L78.6108652,109.363269 C78.6108652,109.245346 78.5275597,109.135304 78.3609486,109.032861 C78.1943376,108.932106 77.998457,108.880885 77.7727441,108.880885 C77.4074381,108.880885 77.182288,108.896645 77.0961681,108.929292 L76.677389,110.120899 L74.6791821,109.250694 C74.8942004,108.724968 75.2811771,108.284237 75.8395493,107.930189 C76.4302868,107.553907 77.0798447,107.366469 77.7885046,107.366469 C79.0237341,107.366469 79.867484,107.822679 80.318347,108.735382 C80.4796108,109.057909 80.5603834,109.465431 80.5603834,109.959917 L80.5603834,113.585114 C80.5603834,113.82124 80.656635,113.939163 80.8502641,113.939163 L81.092019,113.907923 L81.3818997,114.80993 C80.9732523,115.163697 80.54406,115.340722 80.0929155,115.340722 C79.491202,115.340722 79.0617282,115.083769 78.8039314,114.567331 L78.8039314,114.567331 Z" id="Fill-13" fill="#FFFFFF"></path>
                <path d="M86.0706499,111.989363 C84.7706897,112.053812 84.1208503,112.408986 84.1208503,113.052916 C84.1208503,113.236694 84.1799522,113.405557 84.2978745,113.560348 C84.4166412,113.716545 84.6125217,113.795067 84.8860791,113.795067 C85.1599178,113.795067 85.4044871,113.713731 85.6195054,113.552467 C85.8339609,113.391204 85.9839671,113.219527 86.0706499,113.037155 L86.0706499,111.989363 Z M86.2639975,114.567331 C85.747841,115.083769 85.1466903,115.340722 84.4591382,115.340722 C83.7288077,115.340722 83.1487648,115.137805 82.7192911,114.728595 C82.3219012,114.3419 82.1232063,113.872462 82.1232063,113.319156 C82.1232063,112.765849 82.2464759,112.327932 82.4938596,112.006812 C82.7409618,111.684003 83.0522318,111.420578 83.4279509,111.215972 C84.1374551,110.851511 85.0175104,110.658726 86.0706499,110.636492 L86.0706499,109.363269 C86.0706499,109.245346 85.9873443,109.135304 85.8207333,109.032861 C85.6541222,108.932106 85.4582417,108.880885 85.2325287,108.880885 C84.8675042,108.880885 84.6420727,108.896645 84.5562342,108.929292 L84.1374551,110.120899 L82.1389668,109.250694 C82.3542665,108.724968 82.7409618,108.284237 83.299334,107.930189 C83.8900714,107.553907 84.5396294,107.366469 85.2485707,107.366469 C86.4835188,107.366469 87.3275501,107.822679 87.7784131,108.735382 C87.9393954,109.057909 88.020168,109.465431 88.020168,109.959917 L88.020168,113.585114 C88.020168,113.82124 88.1164197,113.939163 88.3100487,113.939163 L88.5518036,113.907923 L88.8416843,114.80993 C88.4333184,115.163697 88.0038447,115.340722 87.5527002,115.340722 C86.9509866,115.340722 86.5215129,115.083769 86.2639975,114.567331 L86.2639975,114.567331 Z" id="Fill-14" fill="#FFFFFF"></path>
                <path d="M90.4523517,112.634699 L90.4852798,108.832196 L89.2607449,108.832196 L89.0187086,107.526607 L89.1315651,107.366469 L90.5010404,107.366469 C90.5114535,106.71072 90.5173637,106.136305 90.5173637,105.642101 C90.5173637,105.148178 90.522711,104.820303 90.5331242,104.658758 L92.2572109,104.289231 L92.4021513,104.546183 L92.4021513,107.366469 L94.0294234,107.366469 C94.0828965,107.366469 94.1099145,107.39799 94.1099145,107.462158 L94.1099145,108.832196 L92.4021513,108.832196 L92.4021513,113.037155 C92.4021513,113.370096 92.4446483,113.577515 92.5313311,113.657444 C92.6171696,113.737372 92.7404392,113.77818 92.901703,113.77818 C93.2236676,113.77818 93.5779975,113.62339 93.9649742,113.311275 C93.9756688,113.354617 94.0024054,113.434545 94.0457468,113.552467 C94.0882438,113.67039 94.1315852,113.795067 94.1743637,113.923402 C94.2815915,114.277451 94.3460407,114.508229 94.3674299,114.615739 C94.2174237,114.777002 93.9675071,114.938547 93.6188059,115.09953 C93.2695419,115.260793 92.9259066,115.340722 92.5876186,115.340722 C92.2493306,115.340722 91.9591685,115.305542 91.717695,115.236027 C91.4759402,115.166512 91.2634548,115.046057 91.0810832,114.874098 C90.6623041,114.497816 90.4523517,113.890755 90.4523517,113.052916 L90.4523517,112.634699" id="Fill-15" fill="#FFFFFF"></path>
                <path d="M95.1568623,114.26169 C95.1568623,113.961678 95.2638086,113.708665 95.4785455,113.50406 C95.6938453,113.300581 95.9488277,113.198419 96.2443372,113.198419 C96.5395652,113.198419 96.7917333,113.300581 97.0019672,113.50406 C97.2107939,113.708665 97.3157701,113.961678 97.3157701,114.26169 C97.3157701,114.561984 97.2107939,114.817811 97.0019672,115.027482 C96.7917333,115.236027 96.5395652,115.340722 96.2443372,115.340722 C95.9488277,115.340722 95.6938453,115.236027 95.4785455,115.027482 C95.2638086,114.817811 95.1568623,114.561984 95.1568623,114.26169" id="Fill-16" fill="#FFFFFF"></path>
                <path d="M103.003624,109.186245 C102.766935,108.971508 102.450317,108.863999 102.052928,108.863999 C101.322597,108.863999 100.83374,109.309796 100.586356,110.20139 C100.490105,110.54587 100.441416,111.041763 100.441416,111.692165 C100.441416,112.342286 100.568063,112.857598 100.820512,113.239227 C101.07268,113.619168 101.424196,113.810827 101.875903,113.810827 C102.101616,113.810827 102.332114,113.735965 102.56824,113.585114 C102.804929,113.434545 102.949588,113.247108 103.003624,113.021395 L103.003624,109.186245 Z M101.907987,107.366469 C102.294682,107.366469 102.659426,107.435703 103.003624,107.575014 L103.003624,104.835782 L102.181545,104.835782 L102.00452,103.741272 L104.388859,103.402702 L104.953142,103.998224 L104.953142,113.585114 C104.953142,113.82124 105.055022,113.939163 105.259346,113.939163 C105.366292,113.939163 105.484777,113.907923 105.613394,113.842348 L105.919599,114.680188 C105.736664,114.928134 105.43637,115.120638 105.017591,115.260793 C104.856327,115.314829 104.679303,115.340722 104.485674,115.340722 C103.88396,115.340722 103.459834,115.115572 103.212732,114.664427 C102.826599,115.115572 102.256688,115.340722 101.504969,115.340722 C100.592266,115.340722 99.8560257,115.002715 99.2976536,114.326139 C98.7283053,113.628455 98.4440534,112.688454 98.4440534,111.506979 C98.4440534,110.046318 98.8360959,108.950118 99.6198996,108.220069 C100.232308,107.651003 100.994722,107.366469 101.907987,107.366469 L101.907987,107.366469 Z" id="Fill-17" fill="#FFFFFF"></path>
                <g id="Group-21" transform="translate(46.155764, 107.227720)">
                    <path d="M62.5027849,3.50558658 C62.5565395,3.51599977 62.6373121,3.52162852 62.7448213,3.52162852 L63.0344205,3.52162852 C63.8185057,3.52162852 64.3613988,3.32856233 64.6622555,2.94186709 C64.7692018,2.80142974 64.8229564,2.61680668 64.8229564,2.38602786 C64.8229564,2.15524904 64.7534413,1.97822479 64.6135668,1.85382938 C64.4739738,1.73055972 64.301734,1.66892489 64.0976917,1.66892489 C63.8939309,1.66892489 63.7005833,1.71733215 63.5182118,1.81442812 C63.3352773,1.90983546 63.1740136,2.04520694 63.0344205,2.21688387 C62.7231506,2.56051916 62.5461263,2.99055579 62.5027849,3.50558658 Z M62.4870244,4.85901993 C62.6373121,6.00897391 63.2868701,6.58310658 64.436824,6.58310658 C64.9301841,6.58310658 65.3278554,6.48882499 65.6287122,6.30110612 C65.929569,6.11366869 66.1766712,5.92763845 66.3703003,5.74498545 L66.7403907,7.14682607 C66.4395339,7.54421594 65.8704671,7.83381522 65.0329088,8.01618677 C64.7534413,8.08176173 64.4151533,8.1130013 64.0177635,8.1130013 C63.6198107,8.1130013 63.203846,8.03307303 62.7690249,7.87180929 C62.333641,7.71082699 61.9441313,7.46935354 61.600496,7.14682607 C60.8380816,6.42690872 60.4567337,5.44497298 60.4567337,4.19792304 C60.4567337,2.88839395 60.8434289,1.85636232 61.6171009,1.1052054 C62.2615929,0.459869016 63.0724146,0.13874873 64.0501288,0.13874873 C64.7905911,0.13874873 65.4196041,0.315772972 65.9349163,0.669821456 C66.5149592,1.07875027 66.8048399,1.63627813 66.8048399,2.34521941 C66.8048399,3.19375373 66.4558573,3.83880868 65.7578921,4.2792585 C65.1342264,4.67636694 64.3183388,4.87478043 63.3085408,4.87478043 L62.8740011,4.87478043 C62.7344081,4.87478043 62.6052282,4.86943312 62.4870244,4.85901993 L62.4870244,4.85901993 Z" id="Fill-18" fill="#FFFFFF"></path>
                    <path d="M0.201227874,25.1019812 C0.117640911,25.1869754 0.103287594,25.2182149 0.188563183,25.3051791 C0.279748961,25.398335 0.770294674,25.1959814 0.702749653,25.1267477 C0.665881329,25.0890351 0.653498076,25.0862207 0.690084962,25.0485081 C0.7719833,24.9649211 0.616911189,24.9708313 0.566252424,24.9761786 C0.45705464,24.987999 0.282563337,25.0186757 0.201227874,25.1019812" id="Fill-20" fill="#1A1919"></path>
                </g>
                <path d="M88.4417615,88.5867019 L100.825015,88.5867019 L100.825015,41.7273438 L88.4417615,41.7273438 L88.4417615,88.5867019 Z M14.0012385,88.5867019 L26.3844923,88.5867019 L26.3844923,41.7273438 L14.0012385,41.7273438 L14.0012385,88.5867019 Z M57.08483,12.6919908 L88.1929707,30.8919967 L27.4778773,30.8919967 L57.08483,12.6919908 Z M36.9386832,88.5867019 L77.887852,88.5867019 L77.887852,41.7273438 L36.9386832,41.7273438 L36.9386832,88.5867019 Z M114.404379,41.7273438 L114.404379,30.8919967 L107.038031,30.8919967 L57.7884239,0.0272994459 L7.27009573,30.8919967 L0.140718793,30.8919967 L0.140718793,41.7273438 L3.447329,41.7273438 L3.447329,88.5867019 L0.140718793,88.5867019 L0.140718793,99.422049 L114.404379,99.422049 L114.404379,88.5867019 L111.378925,88.5867019 L111.378925,41.7273438 L114.404379,41.7273438 L114.404379,41.7273438 Z" id="Fill-22"></path>
                <path d="M88.4417615,88.5867019 L100.825015,88.5867019 L100.825015,41.7273438 L88.4417615,41.7273438 L88.4417615,88.5867019 Z M14.0012385,88.5867019 L26.3844923,88.5867019 L26.3844923,41.7273438 L14.0012385,41.7273438 L14.0012385,88.5867019 Z M57.08483,12.6919908 L88.1929707,30.8919967 L27.4778773,30.8919967 L57.08483,12.6919908 Z M36.9386832,88.5867019 L77.887852,88.5867019 L77.887852,41.7273438 L36.9386832,41.7273438 L36.9386832,88.5867019 Z M114.404379,41.7273438 L114.404379,30.8919967 L107.038031,30.8919967 L57.7884239,0.0272994459 L7.27009573,30.8919967 L0.140718793,30.8919967 L0.140718793,41.7273438 L3.447329,41.7273438 L3.447329,88.5867019 L0.140718793,88.5867019 L0.140718793,99.422049 L114.404379,99.422049 L114.404379,88.5867019 L111.378925,88.5867019 L111.378925,41.7273438 L114.404379,41.7273438 Z" id="Stroke-24" fill="#FFFFFF"></path>
            </g>
        </g>
    </g>
</svg>